<mxfile host="app.diagrams.net" modified="2023-09-06T18:45:12.655Z" agent="Mozilla/5.0 (Windows NT 10.0; Win64; x64) AppleWebKit/537.36 (KHTML, like Gecko) Chrome/116.0.0.0 Safari/537.36" etag="TK5L9mhlVgZlTGgWtjO3" version="21.7.2" type="github">
  <diagram id="C5RBs43oDa-KdzZeNtuy" name="Page-1">
    <mxGraphModel dx="2261" dy="750" grid="1" gridSize="10" guides="1" tooltips="1" connect="1" arrows="1" fold="1" page="1" pageScale="1" pageWidth="827" pageHeight="1169" math="0" shadow="0">
      <root>
        <mxCell id="WIyWlLk6GJQsqaUBKTNV-0" />
        <mxCell id="WIyWlLk6GJQsqaUBKTNV-1" parent="WIyWlLk6GJQsqaUBKTNV-0" />
        <mxCell id="St44Bd5XHEi7_r3chmtu-4" value="" style="group" parent="WIyWlLk6GJQsqaUBKTNV-1" vertex="1" connectable="0">
          <mxGeometry x="350" y="290" width="80" height="90" as="geometry" />
        </mxCell>
        <mxCell id="St44Bd5XHEi7_r3chmtu-2" value="&lt;font size=&quot;1&quot;&gt;Shelter&lt;/font&gt;" style="rounded=0;whiteSpace=wrap;html=1;" parent="St44Bd5XHEi7_r3chmtu-4" vertex="1">
          <mxGeometry width="80" height="45" as="geometry" />
        </mxCell>
        <mxCell id="St44Bd5XHEi7_r3chmtu-3" value="" style="rounded=0;whiteSpace=wrap;html=1;" parent="St44Bd5XHEi7_r3chmtu-4" vertex="1">
          <mxGeometry y="45" width="80" height="45" as="geometry" />
        </mxCell>
        <mxCell id="St44Bd5XHEi7_r3chmtu-11" value="" style="group" parent="WIyWlLk6GJQsqaUBKTNV-1" vertex="1" connectable="0">
          <mxGeometry x="360" y="473" width="80" height="90" as="geometry" />
        </mxCell>
        <mxCell id="St44Bd5XHEi7_r3chmtu-12" value="Shifts" style="rounded=0;whiteSpace=wrap;html=1;" parent="St44Bd5XHEi7_r3chmtu-11" vertex="1">
          <mxGeometry width="80" height="45" as="geometry" />
        </mxCell>
        <mxCell id="St44Bd5XHEi7_r3chmtu-13" value="" style="rounded=0;whiteSpace=wrap;html=1;" parent="St44Bd5XHEi7_r3chmtu-11" vertex="1">
          <mxGeometry y="45" width="80" height="45" as="geometry" />
        </mxCell>
        <mxCell id="5BV0Ulv1FULBEwSFIW00-0" value="" style="group" parent="WIyWlLk6GJQsqaUBKTNV-1" vertex="1" connectable="0">
          <mxGeometry x="90" y="280" width="150" height="90" as="geometry" />
        </mxCell>
        <mxCell id="5BV0Ulv1FULBEwSFIW00-1" value="Donations" style="rounded=0;whiteSpace=wrap;html=1;" parent="5BV0Ulv1FULBEwSFIW00-0" vertex="1">
          <mxGeometry width="150" height="45" as="geometry" />
        </mxCell>
        <mxCell id="5BV0Ulv1FULBEwSFIW00-2" value="money, clothes, food, blankets, bedding, soap etc." style="rounded=0;whiteSpace=wrap;html=1;" parent="5BV0Ulv1FULBEwSFIW00-0" vertex="1">
          <mxGeometry y="40" width="150" height="50" as="geometry" />
        </mxCell>
        <mxCell id="5BV0Ulv1FULBEwSFIW00-3" value="" style="endArrow=classic;html=1;rounded=0;entryX=0.5;entryY=1;entryDx=0;entryDy=0;" parent="WIyWlLk6GJQsqaUBKTNV-1" source="cRR08hYIlG-YdCW4J_Mc-7" target="5BV0Ulv1FULBEwSFIW00-2" edge="1">
          <mxGeometry width="50" height="50" relative="1" as="geometry">
            <mxPoint x="174.73684210526312" y="460" as="sourcePoint" />
            <mxPoint x="440" y="280" as="targetPoint" />
          </mxGeometry>
        </mxCell>
        <mxCell id="5BV0Ulv1FULBEwSFIW00-4" value="Donates" style="text;html=1;align=center;verticalAlign=middle;resizable=0;points=[];autosize=1;strokeColor=none;fillColor=none;" parent="WIyWlLk6GJQsqaUBKTNV-1" vertex="1">
          <mxGeometry x="100" y="400" width="70" height="30" as="geometry" />
        </mxCell>
        <mxCell id="5BV0Ulv1FULBEwSFIW00-7" value="" style="endArrow=classic;html=1;rounded=0;exitX=1;exitY=1;exitDx=0;exitDy=0;entryX=0;entryY=0.5;entryDx=0;entryDy=0;" parent="WIyWlLk6GJQsqaUBKTNV-1" source="5BV0Ulv1FULBEwSFIW00-1" target="St44Bd5XHEi7_r3chmtu-2" edge="1">
          <mxGeometry width="50" height="50" relative="1" as="geometry">
            <mxPoint x="240" y="325" as="sourcePoint" />
            <mxPoint x="350" y="313" as="targetPoint" />
          </mxGeometry>
        </mxCell>
        <mxCell id="5BV0Ulv1FULBEwSFIW00-6" value="donated to" style="text;html=1;align=center;verticalAlign=middle;resizable=0;points=[];autosize=1;strokeColor=none;fillColor=none;" parent="WIyWlLk6GJQsqaUBKTNV-1" vertex="1">
          <mxGeometry x="250" y="290" width="80" height="30" as="geometry" />
        </mxCell>
        <mxCell id="5BV0Ulv1FULBEwSFIW00-8" value="" style="endArrow=classic;html=1;rounded=0;entryX=0.5;entryY=1;entryDx=0;entryDy=0;" parent="WIyWlLk6GJQsqaUBKTNV-1" source="St44Bd5XHEi7_r3chmtu-12" target="St44Bd5XHEi7_r3chmtu-3" edge="1">
          <mxGeometry width="50" height="50" relative="1" as="geometry">
            <mxPoint x="390" y="330" as="sourcePoint" />
            <mxPoint x="440" y="280" as="targetPoint" />
          </mxGeometry>
        </mxCell>
        <mxCell id="5BV0Ulv1FULBEwSFIW00-11" value="give time" style="text;html=1;align=center;verticalAlign=middle;resizable=0;points=[];autosize=1;strokeColor=none;fillColor=none;" parent="WIyWlLk6GJQsqaUBKTNV-1" vertex="1">
          <mxGeometry x="260" y="485" width="70" height="30" as="geometry" />
        </mxCell>
        <mxCell id="5BV0Ulv1FULBEwSFIW00-12" value="work at" style="text;html=1;align=center;verticalAlign=middle;resizable=0;points=[];autosize=1;strokeColor=none;fillColor=none;" parent="WIyWlLk6GJQsqaUBKTNV-1" vertex="1">
          <mxGeometry x="384" y="413" width="60" height="30" as="geometry" />
        </mxCell>
        <mxCell id="m17-Y4bESD3xmkA4W81M-3" value="" style="endArrow=classic;html=1;rounded=0;exitX=0.438;exitY=1.133;exitDx=0;exitDy=0;entryX=0.5;entryY=0;entryDx=0;entryDy=0;exitPerimeter=0;" parent="WIyWlLk6GJQsqaUBKTNV-1" source="cRR08hYIlG-YdCW4J_Mc-8" target="cRR08hYIlG-YdCW4J_Mc-4" edge="1">
          <mxGeometry width="50" height="50" relative="1" as="geometry">
            <mxPoint x="202.1052631578948" y="550" as="sourcePoint" />
            <mxPoint x="222.5" y="630" as="targetPoint" />
          </mxGeometry>
        </mxCell>
        <mxCell id="m17-Y4bESD3xmkA4W81M-5" value="" style="group" parent="WIyWlLk6GJQsqaUBKTNV-1" vertex="1" connectable="0">
          <mxGeometry x="490" y="630" width="210" height="110" as="geometry" />
        </mxCell>
        <mxCell id="m17-Y4bESD3xmkA4W81M-6" value="Helper Log" style="rounded=0;whiteSpace=wrap;html=1;" parent="m17-Y4bESD3xmkA4W81M-5" vertex="1">
          <mxGeometry width="210" height="45" as="geometry" />
        </mxCell>
        <mxCell id="m17-Y4bESD3xmkA4W81M-7" value="Holds items that Helpers select to donate. Items can be added or removed. Items held persist until removed or checkout." style="rounded=0;whiteSpace=wrap;html=1;" parent="m17-Y4bESD3xmkA4W81M-5" vertex="1">
          <mxGeometry y="45" width="210" height="65" as="geometry" />
        </mxCell>
        <mxCell id="m17-Y4bESD3xmkA4W81M-10" value="" style="endArrow=classic;html=1;rounded=0;exitX=1;exitY=0.75;exitDx=0;exitDy=0;entryX=0.037;entryY=1.064;entryDx=0;entryDy=0;entryPerimeter=0;" parent="WIyWlLk6GJQsqaUBKTNV-1" source="cRR08hYIlG-YdCW4J_Mc-4" target="m17-Y4bESD3xmkA4W81M-6" edge="1">
          <mxGeometry width="50" height="50" relative="1" as="geometry">
            <mxPoint x="350" y="675" as="sourcePoint" />
            <mxPoint x="490" y="675" as="targetPoint" />
          </mxGeometry>
        </mxCell>
        <mxCell id="m17-Y4bESD3xmkA4W81M-9" value="Helpers add items" style="text;html=1;align=center;verticalAlign=middle;resizable=0;points=[];autosize=1;strokeColor=none;fillColor=none;" parent="WIyWlLk6GJQsqaUBKTNV-1" vertex="1">
          <mxGeometry x="320" y="680" width="120" height="30" as="geometry" />
        </mxCell>
        <mxCell id="m17-Y4bESD3xmkA4W81M-11" value="" style="endArrow=classic;html=1;rounded=0;entryX=1;entryY=0.5;entryDx=0;entryDy=0;" parent="WIyWlLk6GJQsqaUBKTNV-1" target="St44Bd5XHEi7_r3chmtu-2" edge="1">
          <mxGeometry width="50" height="50" relative="1" as="geometry">
            <mxPoint x="560" y="590" as="sourcePoint" />
            <mxPoint x="400" y="530" as="targetPoint" />
          </mxGeometry>
        </mxCell>
        <mxCell id="m17-Y4bESD3xmkA4W81M-13" value="" style="endArrow=none;html=1;rounded=0;exitX=1;exitY=0.25;exitDx=0;exitDy=0;" parent="WIyWlLk6GJQsqaUBKTNV-1" source="cRR08hYIlG-YdCW4J_Mc-4" edge="1">
          <mxGeometry width="50" height="50" relative="1" as="geometry">
            <mxPoint x="350" y="630" as="sourcePoint" />
            <mxPoint x="560" y="590" as="targetPoint" />
          </mxGeometry>
        </mxCell>
        <mxCell id="m17-Y4bESD3xmkA4W81M-14" value="Manages" style="text;html=1;align=center;verticalAlign=middle;resizable=0;points=[];autosize=1;strokeColor=none;fillColor=none;" parent="WIyWlLk6GJQsqaUBKTNV-1" vertex="1">
          <mxGeometry x="470" y="515" width="70" height="30" as="geometry" />
        </mxCell>
        <mxCell id="m17-Y4bESD3xmkA4W81M-15" value="" style="endArrow=classic;html=1;rounded=0;entryX=1;entryY=0.5;entryDx=0;entryDy=0;" parent="WIyWlLk6GJQsqaUBKTNV-1" target="St44Bd5XHEi7_r3chmtu-2" edge="1">
          <mxGeometry width="50" height="50" relative="1" as="geometry">
            <mxPoint x="640" y="430" as="sourcePoint" />
            <mxPoint x="400" y="530" as="targetPoint" />
          </mxGeometry>
        </mxCell>
        <mxCell id="m17-Y4bESD3xmkA4W81M-16" value="" style="endArrow=none;html=1;rounded=0;exitX=0.645;exitY=0.041;exitDx=0;exitDy=0;exitPerimeter=0;" parent="WIyWlLk6GJQsqaUBKTNV-1" source="m17-Y4bESD3xmkA4W81M-6" edge="1">
          <mxGeometry width="50" height="50" relative="1" as="geometry">
            <mxPoint x="350" y="580" as="sourcePoint" />
            <mxPoint x="640" y="430" as="targetPoint" />
          </mxGeometry>
        </mxCell>
        <mxCell id="m17-Y4bESD3xmkA4W81M-17" value="Donate Items&lt;br&gt;to" style="text;html=1;align=center;verticalAlign=middle;resizable=0;points=[];autosize=1;strokeColor=none;fillColor=none;" parent="WIyWlLk6GJQsqaUBKTNV-1" vertex="1">
          <mxGeometry x="555" y="433" width="90" height="40" as="geometry" />
        </mxCell>
        <mxCell id="cRR08hYIlG-YdCW4J_Mc-1" value="" style="endArrow=classic;html=1;rounded=0;exitX=0;exitY=1;exitDx=0;exitDy=0;entryX=1;entryY=0.25;entryDx=0;entryDy=0;" parent="WIyWlLk6GJQsqaUBKTNV-1" source="St44Bd5XHEi7_r3chmtu-3" edge="1">
          <mxGeometry width="50" height="50" relative="1" as="geometry">
            <mxPoint x="390" y="540" as="sourcePoint" />
            <mxPoint x="229.47368421052624" y="471.25" as="targetPoint" />
          </mxGeometry>
        </mxCell>
        <mxCell id="cRR08hYIlG-YdCW4J_Mc-2" value="Scholarships" style="text;html=1;align=center;verticalAlign=middle;resizable=0;points=[];autosize=1;strokeColor=none;fillColor=none;" parent="WIyWlLk6GJQsqaUBKTNV-1" vertex="1">
          <mxGeometry x="260" y="428" width="90" height="30" as="geometry" />
        </mxCell>
        <mxCell id="cRR08hYIlG-YdCW4J_Mc-3" value="" style="group" parent="WIyWlLk6GJQsqaUBKTNV-1" vertex="1" connectable="0">
          <mxGeometry x="130" y="640" width="130" height="90" as="geometry" />
        </mxCell>
        <mxCell id="cRR08hYIlG-YdCW4J_Mc-4" value="Board" style="rounded=0;whiteSpace=wrap;html=1;" parent="cRR08hYIlG-YdCW4J_Mc-3" vertex="1">
          <mxGeometry width="130" height="45" as="geometry" />
        </mxCell>
        <mxCell id="cRR08hYIlG-YdCW4J_Mc-5" value="Page the Helpers and Admin interact with" style="rounded=0;whiteSpace=wrap;html=1;" parent="cRR08hYIlG-YdCW4J_Mc-3" vertex="1">
          <mxGeometry y="45" width="130" height="45" as="geometry" />
        </mxCell>
        <mxCell id="cRR08hYIlG-YdCW4J_Mc-6" value="" style="group" parent="WIyWlLk6GJQsqaUBKTNV-1" vertex="1" connectable="0">
          <mxGeometry x="100" y="470" width="130" height="90" as="geometry" />
        </mxCell>
        <mxCell id="cRR08hYIlG-YdCW4J_Mc-7" value="Helper" style="rounded=0;whiteSpace=wrap;html=1;" parent="cRR08hYIlG-YdCW4J_Mc-6" vertex="1">
          <mxGeometry width="130" height="45" as="geometry" />
        </mxCell>
        <mxCell id="cRR08hYIlG-YdCW4J_Mc-8" value="Can sign up for volunteering or select items to add to log" style="rounded=0;whiteSpace=wrap;html=1;" parent="cRR08hYIlG-YdCW4J_Mc-6" vertex="1">
          <mxGeometry y="45" width="130" height="45" as="geometry" />
        </mxCell>
        <mxCell id="cRR08hYIlG-YdCW4J_Mc-9" value="" style="group" parent="WIyWlLk6GJQsqaUBKTNV-1" vertex="1" connectable="0">
          <mxGeometry x="-60" y="485" width="140" height="100" as="geometry" />
        </mxCell>
        <mxCell id="cRR08hYIlG-YdCW4J_Mc-10" value="Admin" style="rounded=0;whiteSpace=wrap;html=1;" parent="cRR08hYIlG-YdCW4J_Mc-9" vertex="1">
          <mxGeometry width="140" height="50" as="geometry" />
        </mxCell>
        <mxCell id="cRR08hYIlG-YdCW4J_Mc-11" value="Can add items to list that Helpers can select to donate" style="rounded=0;whiteSpace=wrap;html=1;" parent="cRR08hYIlG-YdCW4J_Mc-9" vertex="1">
          <mxGeometry y="50" width="140" height="50" as="geometry" />
        </mxCell>
        <mxCell id="cRR08hYIlG-YdCW4J_Mc-14" value="" style="endArrow=classic;html=1;rounded=0;exitX=0.557;exitY=0.96;exitDx=0;exitDy=0;exitPerimeter=0;" parent="WIyWlLk6GJQsqaUBKTNV-1" source="cRR08hYIlG-YdCW4J_Mc-11" edge="1">
          <mxGeometry width="50" height="50" relative="1" as="geometry">
            <mxPoint x="390" y="600" as="sourcePoint" />
            <mxPoint x="140" y="640" as="targetPoint" />
          </mxGeometry>
        </mxCell>
        <mxCell id="cRR08hYIlG-YdCW4J_Mc-15" value="Emphasizes items" style="text;html=1;align=center;verticalAlign=middle;resizable=0;points=[];autosize=1;strokeColor=none;fillColor=none;" parent="WIyWlLk6GJQsqaUBKTNV-1" vertex="1">
          <mxGeometry x="-20" y="610" width="120" height="30" as="geometry" />
        </mxCell>
        <mxCell id="cRR08hYIlG-YdCW4J_Mc-17" value="Volunteer/donate" style="text;html=1;align=center;verticalAlign=middle;resizable=0;points=[];autosize=1;strokeColor=none;fillColor=none;" parent="WIyWlLk6GJQsqaUBKTNV-1" vertex="1">
          <mxGeometry x="160" y="585" width="110" height="30" as="geometry" />
        </mxCell>
        <mxCell id="wmnlVVdSoLwFTL4QDOBY-0" value="0-1" style="text;html=1;align=center;verticalAlign=middle;resizable=0;points=[];autosize=1;strokeColor=none;fillColor=none;" vertex="1" parent="WIyWlLk6GJQsqaUBKTNV-1">
          <mxGeometry x="-10" y="578" width="40" height="30" as="geometry" />
        </mxCell>
        <mxCell id="wmnlVVdSoLwFTL4QDOBY-1" value="0-inf" style="text;html=1;align=center;verticalAlign=middle;resizable=0;points=[];autosize=1;strokeColor=none;fillColor=none;" vertex="1" parent="WIyWlLk6GJQsqaUBKTNV-1">
          <mxGeometry x="75" y="638" width="50" height="30" as="geometry" />
        </mxCell>
        <mxCell id="wmnlVVdSoLwFTL4QDOBY-2" value="0-inf" style="text;html=1;align=center;verticalAlign=middle;resizable=0;points=[];autosize=1;strokeColor=none;fillColor=none;" vertex="1" parent="WIyWlLk6GJQsqaUBKTNV-1">
          <mxGeometry x="150" y="560" width="50" height="30" as="geometry" />
        </mxCell>
        <mxCell id="wmnlVVdSoLwFTL4QDOBY-3" value="0-inf" style="text;html=1;align=center;verticalAlign=middle;resizable=0;points=[];autosize=1;strokeColor=none;fillColor=none;" vertex="1" parent="WIyWlLk6GJQsqaUBKTNV-1">
          <mxGeometry x="180" y="600" width="50" height="30" as="geometry" />
        </mxCell>
        <mxCell id="wmnlVVdSoLwFTL4QDOBY-4" value="0-inf" style="text;html=1;align=center;verticalAlign=middle;resizable=0;points=[];autosize=1;strokeColor=none;fillColor=none;" vertex="1" parent="WIyWlLk6GJQsqaUBKTNV-1">
          <mxGeometry x="115" y="438" width="50" height="30" as="geometry" />
        </mxCell>
        <mxCell id="wmnlVVdSoLwFTL4QDOBY-5" value="0-inf" style="text;html=1;align=center;verticalAlign=middle;resizable=0;points=[];autosize=1;strokeColor=none;fillColor=none;" vertex="1" parent="WIyWlLk6GJQsqaUBKTNV-1">
          <mxGeometry x="105" y="368" width="50" height="30" as="geometry" />
        </mxCell>
        <mxCell id="wmnlVVdSoLwFTL4QDOBY-6" value="0-4" style="text;html=1;align=center;verticalAlign=middle;resizable=0;points=[];autosize=1;strokeColor=none;fillColor=none;" vertex="1" parent="WIyWlLk6GJQsqaUBKTNV-1">
          <mxGeometry x="225" y="480" width="40" height="30" as="geometry" />
        </mxCell>
        <mxCell id="wmnlVVdSoLwFTL4QDOBY-9" value="" style="endArrow=classic;html=1;rounded=0;exitX=1;exitY=1;exitDx=0;exitDy=0;entryX=0;entryY=0.75;entryDx=0;entryDy=0;" edge="1" parent="WIyWlLk6GJQsqaUBKTNV-1" target="St44Bd5XHEi7_r3chmtu-12">
          <mxGeometry width="50" height="50" relative="1" as="geometry">
            <mxPoint x="229.47368421052624" y="505" as="sourcePoint" />
            <mxPoint x="360" y="518" as="targetPoint" />
          </mxGeometry>
        </mxCell>
        <mxCell id="wmnlVVdSoLwFTL4QDOBY-7" value="1-5" style="text;html=1;align=center;verticalAlign=middle;resizable=0;points=[];autosize=1;strokeColor=none;fillColor=none;" vertex="1" parent="WIyWlLk6GJQsqaUBKTNV-1">
          <mxGeometry x="320" y="485" width="40" height="30" as="geometry" />
        </mxCell>
        <mxCell id="wmnlVVdSoLwFTL4QDOBY-10" value="1-5" style="text;html=1;align=center;verticalAlign=middle;resizable=0;points=[];autosize=1;strokeColor=none;fillColor=none;" vertex="1" parent="WIyWlLk6GJQsqaUBKTNV-1">
          <mxGeometry x="394" y="443" width="40" height="30" as="geometry" />
        </mxCell>
        <mxCell id="wmnlVVdSoLwFTL4QDOBY-11" value="1" style="text;html=1;align=center;verticalAlign=middle;resizable=0;points=[];autosize=1;strokeColor=none;fillColor=none;" vertex="1" parent="WIyWlLk6GJQsqaUBKTNV-1">
          <mxGeometry x="390" y="380" width="30" height="30" as="geometry" />
        </mxCell>
        <mxCell id="wmnlVVdSoLwFTL4QDOBY-12" value="1" style="text;html=1;align=center;verticalAlign=middle;resizable=0;points=[];autosize=1;strokeColor=none;fillColor=none;" vertex="1" parent="WIyWlLk6GJQsqaUBKTNV-1">
          <mxGeometry x="320" y="358" width="30" height="30" as="geometry" />
        </mxCell>
        <mxCell id="wmnlVVdSoLwFTL4QDOBY-13" value="1" style="text;html=1;align=center;verticalAlign=middle;resizable=0;points=[];autosize=1;strokeColor=none;fillColor=none;" vertex="1" parent="WIyWlLk6GJQsqaUBKTNV-1">
          <mxGeometry x="225" y="440" width="30" height="30" as="geometry" />
        </mxCell>
        <mxCell id="wmnlVVdSoLwFTL4QDOBY-14" value="1" style="text;html=1;align=center;verticalAlign=middle;resizable=0;points=[];autosize=1;strokeColor=none;fillColor=none;" vertex="1" parent="WIyWlLk6GJQsqaUBKTNV-1">
          <mxGeometry x="265" y="618" width="30" height="30" as="geometry" />
        </mxCell>
        <mxCell id="wmnlVVdSoLwFTL4QDOBY-15" value="1" style="text;html=1;align=center;verticalAlign=middle;resizable=0;points=[];autosize=1;strokeColor=none;fillColor=none;" vertex="1" parent="WIyWlLk6GJQsqaUBKTNV-1">
          <mxGeometry x="435" y="288" width="30" height="30" as="geometry" />
        </mxCell>
        <mxCell id="wmnlVVdSoLwFTL4QDOBY-16" value="1" style="text;html=1;align=center;verticalAlign=middle;resizable=0;points=[];autosize=1;strokeColor=none;fillColor=none;" vertex="1" parent="WIyWlLk6GJQsqaUBKTNV-1">
          <mxGeometry x="440" y="340" width="30" height="30" as="geometry" />
        </mxCell>
        <mxCell id="wmnlVVdSoLwFTL4QDOBY-17" value="1" style="text;html=1;align=center;verticalAlign=middle;resizable=0;points=[];autosize=1;strokeColor=none;fillColor=none;" vertex="1" parent="WIyWlLk6GJQsqaUBKTNV-1">
          <mxGeometry x="615" y="600" width="30" height="30" as="geometry" />
        </mxCell>
        <mxCell id="wmnlVVdSoLwFTL4QDOBY-18" value="1" style="text;html=1;align=center;verticalAlign=middle;resizable=0;points=[];autosize=1;strokeColor=none;fillColor=none;" vertex="1" parent="WIyWlLk6GJQsqaUBKTNV-1">
          <mxGeometry x="255" y="678" width="30" height="30" as="geometry" />
        </mxCell>
        <mxCell id="wmnlVVdSoLwFTL4QDOBY-19" value="1-inf" style="text;html=1;align=center;verticalAlign=middle;resizable=0;points=[];autosize=1;strokeColor=none;fillColor=none;" vertex="1" parent="WIyWlLk6GJQsqaUBKTNV-1">
          <mxGeometry x="440" y="648" width="50" height="30" as="geometry" />
        </mxCell>
      </root>
    </mxGraphModel>
  </diagram>
</mxfile>
